<mxfile host="app.diagrams.net" modified="2021-01-19T13:38:52.357Z" agent="5.0 (Windows NT 10.0; Win64; x64) AppleWebKit/537.36 (KHTML, like Gecko) Chrome/87.0.4280.141 Safari/537.36" etag="Blo6hIV8WmQLQX3x9UQZ" version="14.1.9" type="github" pages="3">
  <diagram id="GbZ1ZwChNBxgJ4C_-Y3V" name="UML示例图">
    <mxGraphModel dx="1038" dy="547" grid="1" gridSize="10" guides="1" tooltips="1" connect="1" arrows="1" fold="1" page="1" pageScale="1" pageWidth="827" pageHeight="1169" math="0" shadow="0">
      <root>
        <mxCell id="0" />
        <mxCell id="1" parent="0" />
        <mxCell id="fm39pIIFy_Z-lrLezSjA-2" value="" style="shape=umlActor;verticalLabelPosition=bottom;verticalAlign=top;html=1;outlineConnect=0;" parent="1" vertex="1">
          <mxGeometry x="100" y="50" width="30" height="60" as="geometry" />
        </mxCell>
        <mxCell id="fm39pIIFy_Z-lrLezSjA-3" value="special_0" style="rounded=1;whiteSpace=wrap;html=1;shadow=0;comic=0;labelBackgroundColor=none;strokeWidth=1;fontFamily=Verdana;fontSize=12;align=center;arcSize=50;" parent="1" vertex="1">
          <mxGeometry x="360" y="67" width="100" height="30" as="geometry" />
        </mxCell>
        <mxCell id="fm39pIIFy_Z-lrLezSjA-14" style="edgeStyle=orthogonalEdgeStyle;rounded=0;orthogonalLoop=1;jettySize=auto;html=1;entryX=1;entryY=0.5;entryDx=0;entryDy=0;" parent="1" source="fm39pIIFy_Z-lrLezSjA-5" target="fm39pIIFy_Z-lrLezSjA-3" edge="1">
          <mxGeometry relative="1" as="geometry" />
        </mxCell>
        <mxCell id="fm39pIIFy_Z-lrLezSjA-5" value="出生点" style="shape=card;whiteSpace=wrap;html=1;size=20;fillColor=#d5e8d4;strokeColor=#82b366;" parent="1" vertex="1">
          <mxGeometry x="510" y="62" width="80" height="40" as="geometry" />
        </mxCell>
        <mxCell id="fm39pIIFy_Z-lrLezSjA-6" value="医生房间CG场景" style="rounded=0;whiteSpace=wrap;html=1;shadow=0;comic=0;labelBackgroundColor=none;strokeWidth=1;fontFamily=Verdana;fontSize=12;align=center;arcSize=50;fillColor=#ffe6cc;strokeColor=#d79b00;" parent="1" vertex="1">
          <mxGeometry x="650" y="57" width="96.5" height="50" as="geometry" />
        </mxCell>
        <mxCell id="fm39pIIFy_Z-lrLezSjA-7" value="" style="ellipse;html=1;shape=endState;fillColor=#000000;strokeColor=#ff0000;" parent="1" vertex="1">
          <mxGeometry x="100" y="290" width="30" height="30" as="geometry" />
        </mxCell>
        <mxCell id="fm39pIIFy_Z-lrLezSjA-8" value="指挥所1F" style="shape=parallelogram;perimeter=parallelogramPerimeter;whiteSpace=wrap;html=1;fixedSize=1;" parent="1" vertex="1">
          <mxGeometry x="230" y="280" width="120" height="40" as="geometry" />
        </mxCell>
        <mxCell id="fm39pIIFy_Z-lrLezSjA-9" value="&lt;font style=&quot;font-size: 17px&quot;&gt;玩家&lt;/font&gt;" style="text;html=1;align=center;verticalAlign=middle;resizable=0;points=[];autosize=1;" parent="1" vertex="1">
          <mxGeometry x="90" y="140" width="50" height="20" as="geometry" />
        </mxCell>
        <mxCell id="fm39pIIFy_Z-lrLezSjA-10" value="&lt;span style=&quot;font-size: 17px&quot;&gt;剧情节点&lt;/span&gt;" style="text;html=1;align=center;verticalAlign=middle;resizable=0;points=[];autosize=1;" parent="1" vertex="1">
          <mxGeometry x="370" y="142" width="80" height="20" as="geometry" />
        </mxCell>
        <mxCell id="fm39pIIFy_Z-lrLezSjA-11" value="&lt;span style=&quot;font-size: 17px&quot;&gt;剧情节点文档名&lt;/span&gt;" style="text;html=1;align=center;verticalAlign=middle;resizable=0;points=[];autosize=1;" parent="1" vertex="1">
          <mxGeometry x="205" y="142" width="130" height="20" as="geometry" />
        </mxCell>
        <mxCell id="fm39pIIFy_Z-lrLezSjA-13" style="edgeStyle=orthogonalEdgeStyle;rounded=0;orthogonalLoop=1;jettySize=auto;html=1;entryX=0;entryY=0.5;entryDx=0;entryDy=0;" parent="1" source="fm39pIIFy_Z-lrLezSjA-12" target="fm39pIIFy_Z-lrLezSjA-3" edge="1">
          <mxGeometry relative="1" as="geometry" />
        </mxCell>
        <mxCell id="fm39pIIFy_Z-lrLezSjA-12" value="special" style="shape=note;whiteSpace=wrap;html=1;rounded=0;shadow=0;comic=0;labelBackgroundColor=none;strokeWidth=1;fontFamily=Verdana;fontSize=12;align=center;size=20;fillColor=#dae8fc;strokeColor=#6c8ebf;" parent="1" vertex="1">
          <mxGeometry x="226" y="60" width="75" height="44" as="geometry" />
        </mxCell>
        <mxCell id="fm39pIIFy_Z-lrLezSjA-15" value="&lt;span style=&quot;color: rgb(0 , 0 , 0) ; font-family: &amp;#34;helvetica&amp;#34; ; font-size: 17px ; font-style: normal ; font-weight: 400 ; letter-spacing: normal ; text-align: center ; text-indent: 0px ; text-transform: none ; word-spacing: 0px ; background-color: rgb(248 , 249 , 250) ; display: inline ; float: none&quot;&gt;触发地点&lt;/span&gt;" style="text;whiteSpace=wrap;html=1;" parent="1" vertex="1">
          <mxGeometry x="515" y="137" width="70" height="30" as="geometry" />
        </mxCell>
        <mxCell id="fm39pIIFy_Z-lrLezSjA-16" value="&lt;span style=&quot;font-size: 17px&quot;&gt;CG场景名称&lt;/span&gt;" style="text;html=1;align=center;verticalAlign=middle;resizable=0;points=[];autosize=1;" parent="1" vertex="1">
          <mxGeometry x="635" y="140" width="110" height="20" as="geometry" />
        </mxCell>
        <mxCell id="fm39pIIFy_Z-lrLezSjA-17" value="&lt;span style=&quot;font-size: 17px&quot;&gt;章节剧情结束点&lt;/span&gt;" style="text;html=1;align=center;verticalAlign=middle;resizable=0;points=[];autosize=1;" parent="1" vertex="1">
          <mxGeometry x="55" y="370" width="130" height="20" as="geometry" />
        </mxCell>
        <mxCell id="fm39pIIFy_Z-lrLezSjA-18" value="&lt;span style=&quot;font-size: 17px&quot;&gt;关卡场景切换&lt;/span&gt;" style="text;html=1;align=center;verticalAlign=middle;resizable=0;points=[];autosize=1;" parent="1" vertex="1">
          <mxGeometry x="230" y="370" width="120" height="20" as="geometry" />
        </mxCell>
        <mxCell id="kn6Z-zRhNiEJqK1csQy6-1" value="" style="shape=flexArrow;endArrow=classic;startArrow=classic;html=1;" parent="1" edge="1">
          <mxGeometry width="50" height="50" relative="1" as="geometry">
            <mxPoint x="419" y="313.75" as="sourcePoint" />
            <mxPoint x="469" y="263.75" as="targetPoint" />
          </mxGeometry>
        </mxCell>
        <mxCell id="kn6Z-zRhNiEJqK1csQy6-2" value="指挥所1F" style="text;html=1;align=center;verticalAlign=middle;resizable=0;points=[];autosize=1;" parent="1" vertex="1">
          <mxGeometry x="414" y="316.25" width="70" height="20" as="geometry" />
        </mxCell>
        <mxCell id="kn6Z-zRhNiEJqK1csQy6-3" value="&lt;font style=&quot;font-size: 17px&quot;&gt;传送点&lt;/font&gt;" style="text;html=1;align=center;verticalAlign=middle;resizable=0;points=[];autosize=1;" parent="1" vertex="1">
          <mxGeometry x="414" y="370" width="70" height="20" as="geometry" />
        </mxCell>
      </root>
    </mxGraphModel>
  </diagram>
  <diagram id="WgZ2JB18ooaytrucD8LY" name="指挥所1楼平面图">
    <mxGraphModel dx="1038" dy="1716" grid="1" gridSize="10" guides="1" tooltips="1" connect="1" arrows="1" fold="1" page="1" pageScale="1" pageWidth="827" pageHeight="1169" math="0" shadow="0">
      <root>
        <mxCell id="hEAx2sPkmhx9yD9YSmCt-0" />
        <mxCell id="hEAx2sPkmhx9yD9YSmCt-1" parent="hEAx2sPkmhx9yD9YSmCt-0" />
        <mxCell id="hEAx2sPkmhx9yD9YSmCt-2" value="" style="rounded=0;whiteSpace=wrap;html=1;" parent="hEAx2sPkmhx9yD9YSmCt-1" vertex="1">
          <mxGeometry x="120" y="130" width="910" height="560" as="geometry" />
        </mxCell>
        <mxCell id="hEAx2sPkmhx9yD9YSmCt-3" value="&lt;span style=&quot;font-size: 20px&quot;&gt;餐厅贵宾包厢&lt;/span&gt;" style="rounded=0;whiteSpace=wrap;html=1;" parent="hEAx2sPkmhx9yD9YSmCt-1" vertex="1">
          <mxGeometry x="300" y="130" width="370" height="140" as="geometry" />
        </mxCell>
        <mxCell id="hEAx2sPkmhx9yD9YSmCt-5" value="&lt;font style=&quot;font-size: 20px&quot;&gt;接待室&lt;/font&gt;" style="rounded=0;whiteSpace=wrap;html=1;" parent="hEAx2sPkmhx9yD9YSmCt-1" vertex="1">
          <mxGeometry x="300" y="480" width="300" height="110" as="geometry" />
        </mxCell>
        <mxCell id="hEAx2sPkmhx9yD9YSmCt-8" value="" style="shape=process;whiteSpace=wrap;html=1;backgroundOutline=1;rotation=90;direction=south;" parent="hEAx2sPkmhx9yD9YSmCt-1" vertex="1">
          <mxGeometry x="442.5" y="562.5" width="15" height="60" as="geometry" />
        </mxCell>
        <mxCell id="hEAx2sPkmhx9yD9YSmCt-9" value="&lt;span style=&quot;font-size: 20px&quot;&gt;餐厅&lt;/span&gt;" style="shape=partialRectangle;whiteSpace=wrap;html=1;bottom=0;right=0;fillColor=none;direction=north;" parent="hEAx2sPkmhx9yD9YSmCt-1" vertex="1">
          <mxGeometry x="300.01" y="370" width="309.99" height="110.01" as="geometry" />
        </mxCell>
        <mxCell id="hEAx2sPkmhx9yD9YSmCt-10" value="&lt;span style=&quot;font-size: 20px&quot;&gt;仓库&lt;/span&gt;" style="rounded=0;whiteSpace=wrap;html=1;" parent="hEAx2sPkmhx9yD9YSmCt-1" vertex="1">
          <mxGeometry x="880" y="130" width="150" height="120" as="geometry" />
        </mxCell>
        <mxCell id="hEAx2sPkmhx9yD9YSmCt-11" value="" style="shape=process;whiteSpace=wrap;html=1;backgroundOutline=1;rotation=90;" parent="hEAx2sPkmhx9yD9YSmCt-1" vertex="1">
          <mxGeometry x="850" y="187.5" width="60" height="15" as="geometry" />
        </mxCell>
        <mxCell id="hEAx2sPkmhx9yD9YSmCt-18" value="&lt;h1&gt;指挥所一楼&lt;/h1&gt;&lt;p&gt;剧情简介&lt;/p&gt;" style="text;html=1;strokeColor=none;fillColor=none;spacing=5;spacingTop=-20;whiteSpace=wrap;overflow=hidden;rounded=0;" parent="hEAx2sPkmhx9yD9YSmCt-1" vertex="1">
          <mxGeometry x="100" y="-120" width="190" height="120" as="geometry" />
        </mxCell>
        <mxCell id="z6Ym-DuhiTqGMr9oVK6N-0" value="&lt;span style=&quot;font-size: 20px&quot;&gt;厕所&lt;/span&gt;" style="rounded=0;whiteSpace=wrap;html=1;" parent="hEAx2sPkmhx9yD9YSmCt-1" vertex="1">
          <mxGeometry x="880" y="250" width="150" height="120" as="geometry" />
        </mxCell>
        <mxCell id="z6Ym-DuhiTqGMr9oVK6N-1" value="" style="shape=process;whiteSpace=wrap;html=1;backgroundOutline=1;rotation=90;" parent="hEAx2sPkmhx9yD9YSmCt-1" vertex="1">
          <mxGeometry x="850" y="302.5" width="60" height="15" as="geometry" />
        </mxCell>
        <mxCell id="z6Ym-DuhiTqGMr9oVK6N-2" value="&lt;span style=&quot;font-size: 20px&quot;&gt;档案室&lt;/span&gt;" style="rounded=0;whiteSpace=wrap;html=1;" parent="hEAx2sPkmhx9yD9YSmCt-1" vertex="1">
          <mxGeometry x="740" y="370" width="290" height="110" as="geometry" />
        </mxCell>
        <mxCell id="z6Ym-DuhiTqGMr9oVK6N-3" value="" style="shape=process;whiteSpace=wrap;html=1;backgroundOutline=1;rotation=90;direction=south;" parent="hEAx2sPkmhx9yD9YSmCt-1" vertex="1">
          <mxGeometry x="800" y="450" width="15" height="60" as="geometry" />
        </mxCell>
        <mxCell id="z6Ym-DuhiTqGMr9oVK6N-4" value="&lt;span style=&quot;font-size: 20px&quot;&gt;药品仓库&lt;/span&gt;" style="rounded=0;whiteSpace=wrap;html=1;" parent="hEAx2sPkmhx9yD9YSmCt-1" vertex="1">
          <mxGeometry x="880" y="480" width="150" height="110" as="geometry" />
        </mxCell>
        <mxCell id="z6Ym-DuhiTqGMr9oVK6N-5" value="" style="shape=process;whiteSpace=wrap;html=1;backgroundOutline=1;rotation=90;direction=south;" parent="hEAx2sPkmhx9yD9YSmCt-1" vertex="1">
          <mxGeometry x="945" y="562.5" width="15" height="60" as="geometry" />
        </mxCell>
        <mxCell id="szCBxvzyftP_sh5uRVHi-0" value="" style="shape=flexArrow;endArrow=classic;startArrow=classic;html=1;" parent="hEAx2sPkmhx9yD9YSmCt-1" edge="1">
          <mxGeometry width="50" height="50" relative="1" as="geometry">
            <mxPoint x="132.5" y="210" as="sourcePoint" />
            <mxPoint x="182.5" y="160" as="targetPoint" />
          </mxGeometry>
        </mxCell>
        <mxCell id="szCBxvzyftP_sh5uRVHi-1" value="指挥所2F" style="text;html=1;align=center;verticalAlign=middle;resizable=0;points=[];autosize=1;" parent="hEAx2sPkmhx9yD9YSmCt-1" vertex="1">
          <mxGeometry x="127.5" y="212.5" width="70" height="20" as="geometry" />
        </mxCell>
        <mxCell id="szCBxvzyftP_sh5uRVHi-3" value="" style="shape=flexArrow;endArrow=classic;startArrow=classic;html=1;" parent="hEAx2sPkmhx9yD9YSmCt-1" edge="1">
          <mxGeometry width="50" height="50" relative="1" as="geometry">
            <mxPoint x="965" y="672.5" as="sourcePoint" />
            <mxPoint x="1015" y="622.5" as="targetPoint" />
          </mxGeometry>
        </mxCell>
        <mxCell id="szCBxvzyftP_sh5uRVHi-4" value="指挥所2F" style="text;html=1;align=center;verticalAlign=middle;resizable=0;points=[];autosize=1;" parent="hEAx2sPkmhx9yD9YSmCt-1" vertex="1">
          <mxGeometry x="960" y="675" width="70" height="20" as="geometry" />
        </mxCell>
        <mxCell id="szCBxvzyftP_sh5uRVHi-7" value="&lt;span style=&quot;font-size: 20px&quot;&gt;厨房&lt;/span&gt;" style="rounded=0;whiteSpace=wrap;html=1;" parent="hEAx2sPkmhx9yD9YSmCt-1" vertex="1">
          <mxGeometry x="600" y="370" width="140" height="110" as="geometry" />
        </mxCell>
        <mxCell id="szCBxvzyftP_sh5uRVHi-10" value="&lt;span style=&quot;font-size: 20px&quot;&gt;警卫室&lt;/span&gt;" style="rounded=0;whiteSpace=wrap;html=1;" parent="hEAx2sPkmhx9yD9YSmCt-1" vertex="1">
          <mxGeometry x="600" y="480" width="140" height="110" as="geometry" />
        </mxCell>
        <mxCell id="szCBxvzyftP_sh5uRVHi-11" value="" style="shape=process;whiteSpace=wrap;html=1;backgroundOutline=1;rotation=90;direction=south;" parent="hEAx2sPkmhx9yD9YSmCt-1" vertex="1">
          <mxGeometry x="662.5" y="560" width="15" height="60" as="geometry" />
        </mxCell>
        <mxCell id="szCBxvzyftP_sh5uRVHi-15" value="" style="endArrow=none;html=1;entryX=0;entryY=1;entryDx=0;entryDy=0;exitX=0;exitY=0.5;exitDx=0;exitDy=0;" parent="hEAx2sPkmhx9yD9YSmCt-1" source="hEAx2sPkmhx9yD9YSmCt-6" target="hEAx2sPkmhx9yD9YSmCt-3" edge="1">
          <mxGeometry width="50" height="50" relative="1" as="geometry">
            <mxPoint x="520" y="460" as="sourcePoint" />
            <mxPoint x="570" y="410" as="targetPoint" />
          </mxGeometry>
        </mxCell>
        <mxCell id="hEAx2sPkmhx9yD9YSmCt-6" value="" style="shape=process;whiteSpace=wrap;html=1;backgroundOutline=1;rotation=90;" parent="hEAx2sPkmhx9yD9YSmCt-1" vertex="1">
          <mxGeometry x="270" y="390" width="60" height="15" as="geometry" />
        </mxCell>
        <mxCell id="szCBxvzyftP_sh5uRVHi-16" value="" style="shape=process;whiteSpace=wrap;html=1;backgroundOutline=1;rotation=90;" parent="hEAx2sPkmhx9yD9YSmCt-1" vertex="1">
          <mxGeometry x="570" y="420" width="60" height="15" as="geometry" />
        </mxCell>
        <mxCell id="szCBxvzyftP_sh5uRVHi-17" value="" style="shape=process;whiteSpace=wrap;html=1;backgroundOutline=1;rotation=90;direction=south;" parent="hEAx2sPkmhx9yD9YSmCt-1" vertex="1">
          <mxGeometry x="557.5" y="567.5" width="15" height="245" as="geometry" />
        </mxCell>
        <mxCell id="szCBxvzyftP_sh5uRVHi-18" value="&lt;span style=&quot;font-size: 20px&quot;&gt;锅炉房&lt;/span&gt;" style="rounded=0;whiteSpace=wrap;html=1;" parent="hEAx2sPkmhx9yD9YSmCt-1" vertex="1">
          <mxGeometry x="120" y="20" width="170" height="110" as="geometry" />
        </mxCell>
        <mxCell id="szCBxvzyftP_sh5uRVHi-19" value="" style="shape=process;whiteSpace=wrap;html=1;backgroundOutline=1;rotation=90;direction=south;" parent="hEAx2sPkmhx9yD9YSmCt-1" vertex="1">
          <mxGeometry x="197.5" y="100" width="15" height="60" as="geometry" />
        </mxCell>
        <mxCell id="szCBxvzyftP_sh5uRVHi-20" value="窗户" style="verticalLabelPosition=bottom;verticalAlign=top;html=1;shape=mxgraph.basic.polygon;polyCoords=[[0.25,0],[0.75,0],[1,0.25],[1,0.75],[0.75,1],[0.25,1],[0,0.75],[0,0.25]];polyline=0;" parent="hEAx2sPkmhx9yD9YSmCt-1" vertex="1">
          <mxGeometry x="727" y="120" width="100" height="20" as="geometry" />
        </mxCell>
        <mxCell id="szCBxvzyftP_sh5uRVHi-21" value="" style="shape=process;whiteSpace=wrap;html=1;backgroundOutline=1;rotation=90;direction=south;" parent="hEAx2sPkmhx9yD9YSmCt-1" vertex="1">
          <mxGeometry x="477.5" y="221.25" width="15" height="102.5" as="geometry" />
        </mxCell>
      </root>
    </mxGraphModel>
  </diagram>
  <diagram id="CDVpoZ3U4tZnnEvqTVdH" name="指挥所2楼平面图">
    <mxGraphModel dx="1038" dy="547" grid="1" gridSize="10" guides="1" tooltips="1" connect="1" arrows="1" fold="1" page="1" pageScale="1" pageWidth="827" pageHeight="1169" math="0" shadow="0">
      <root>
        <mxCell id="VATi5h1n2YLOwhg8Z5gh-0" />
        <mxCell id="VATi5h1n2YLOwhg8Z5gh-1" parent="VATi5h1n2YLOwhg8Z5gh-0" />
        <mxCell id="KKZn7l77yeVXE7LOhPuz-0" value="" style="rounded=0;whiteSpace=wrap;html=1;" parent="VATi5h1n2YLOwhg8Z5gh-1" vertex="1">
          <mxGeometry x="40" y="150" width="870" height="560" as="geometry" />
        </mxCell>
        <mxCell id="KKZn7l77yeVXE7LOhPuz-1" value="&lt;span style=&quot;font-size: 20px&quot;&gt;典狱长房间&lt;/span&gt;" style="rounded=0;whiteSpace=wrap;html=1;" parent="VATi5h1n2YLOwhg8Z5gh-1" vertex="1">
          <mxGeometry x="54" y="285" width="300" height="110" as="geometry" />
        </mxCell>
        <mxCell id="KKZn7l77yeVXE7LOhPuz-2" value="&lt;span style=&quot;font-size: 20px&quot;&gt;浴室&lt;/span&gt;" style="rounded=0;whiteSpace=wrap;html=1;" parent="VATi5h1n2YLOwhg8Z5gh-1" vertex="1">
          <mxGeometry x="54" y="430" width="300" height="110" as="geometry" />
        </mxCell>
        <mxCell id="KKZn7l77yeVXE7LOhPuz-3" value="&lt;font style=&quot;font-size: 20px&quot;&gt;医生房间&lt;/font&gt;" style="rounded=0;whiteSpace=wrap;html=1;" parent="VATi5h1n2YLOwhg8Z5gh-1" vertex="1">
          <mxGeometry x="54" y="580" width="300" height="110" as="geometry" />
        </mxCell>
        <mxCell id="KKZn7l77yeVXE7LOhPuz-4" value="" style="shape=process;whiteSpace=wrap;html=1;backgroundOutline=1;rotation=90;" parent="VATi5h1n2YLOwhg8Z5gh-1" vertex="1">
          <mxGeometry x="320" y="332.5" width="60" height="15" as="geometry" />
        </mxCell>
        <mxCell id="KKZn7l77yeVXE7LOhPuz-5" value="" style="shape=process;whiteSpace=wrap;html=1;backgroundOutline=1;rotation=90;" parent="VATi5h1n2YLOwhg8Z5gh-1" vertex="1">
          <mxGeometry x="320" y="477.5" width="60" height="15" as="geometry" />
        </mxCell>
        <mxCell id="KKZn7l77yeVXE7LOhPuz-6" value="" style="shape=process;whiteSpace=wrap;html=1;backgroundOutline=1;rotation=90;" parent="VATi5h1n2YLOwhg8Z5gh-1" vertex="1">
          <mxGeometry x="320" y="627.5" width="60" height="15" as="geometry" />
        </mxCell>
        <mxCell id="KKZn7l77yeVXE7LOhPuz-7" value="&lt;span style=&quot;font-size: 20px&quot;&gt;展览厅&lt;/span&gt;" style="shape=partialRectangle;whiteSpace=wrap;html=1;bottom=0;right=0;fillColor=none;" parent="VATi5h1n2YLOwhg8Z5gh-1" vertex="1">
          <mxGeometry x="460" y="396.25" width="180" height="183.75" as="geometry" />
        </mxCell>
        <mxCell id="KKZn7l77yeVXE7LOhPuz-8" value="&lt;span style=&quot;font-size: 20px&quot;&gt;客房1&lt;/span&gt;" style="rounded=0;whiteSpace=wrap;html=1;" parent="VATi5h1n2YLOwhg8Z5gh-1" vertex="1">
          <mxGeometry x="730" y="175" width="160" height="110" as="geometry" />
        </mxCell>
        <mxCell id="KKZn7l77yeVXE7LOhPuz-9" value="" style="shape=process;whiteSpace=wrap;html=1;backgroundOutline=1;rotation=90;" parent="VATi5h1n2YLOwhg8Z5gh-1" vertex="1">
          <mxGeometry x="700" y="222.5" width="60" height="15" as="geometry" />
        </mxCell>
        <mxCell id="KKZn7l77yeVXE7LOhPuz-10" value="&lt;span style=&quot;font-size: 20px&quot;&gt;客房2&lt;/span&gt;" style="rounded=0;whiteSpace=wrap;html=1;" parent="VATi5h1n2YLOwhg8Z5gh-1" vertex="1">
          <mxGeometry x="730" y="310" width="160" height="110" as="geometry" />
        </mxCell>
        <mxCell id="KKZn7l77yeVXE7LOhPuz-11" value="" style="shape=process;whiteSpace=wrap;html=1;backgroundOutline=1;rotation=90;" parent="VATi5h1n2YLOwhg8Z5gh-1" vertex="1">
          <mxGeometry x="700" y="357.5" width="60" height="15" as="geometry" />
        </mxCell>
        <mxCell id="KKZn7l77yeVXE7LOhPuz-12" value="&lt;span style=&quot;font-size: 20px&quot;&gt;客房3&lt;/span&gt;" style="rounded=0;whiteSpace=wrap;html=1;" parent="VATi5h1n2YLOwhg8Z5gh-1" vertex="1">
          <mxGeometry x="730" y="448.75" width="160" height="110" as="geometry" />
        </mxCell>
        <mxCell id="KKZn7l77yeVXE7LOhPuz-13" value="" style="shape=process;whiteSpace=wrap;html=1;backgroundOutline=1;rotation=90;" parent="VATi5h1n2YLOwhg8Z5gh-1" vertex="1">
          <mxGeometry x="700" y="496.25" width="60" height="15" as="geometry" />
        </mxCell>
        <mxCell id="KKZn7l77yeVXE7LOhPuz-14" value="&lt;span style=&quot;font-size: 20px&quot;&gt;盥洗室&lt;/span&gt;" style="shape=partialRectangle;whiteSpace=wrap;html=1;bottom=0;right=0;fillColor=none;rotation=0;direction=south;" parent="VATi5h1n2YLOwhg8Z5gh-1" vertex="1">
          <mxGeometry x="460" y="285" width="180" height="110" as="geometry" />
        </mxCell>
        <mxCell id="KKZn7l77yeVXE7LOhPuz-15" value="" style="endArrow=none;html=1;entryX=0;entryY=1;entryDx=0;entryDy=0;exitX=0.595;exitY=1.002;exitDx=0;exitDy=0;exitPerimeter=0;" parent="VATi5h1n2YLOwhg8Z5gh-1" source="KKZn7l77yeVXE7LOhPuz-14" target="KKZn7l77yeVXE7LOhPuz-14" edge="1">
          <mxGeometry width="50" height="50" relative="1" as="geometry">
            <mxPoint x="510" y="410" as="sourcePoint" />
            <mxPoint x="560" y="360" as="targetPoint" />
          </mxGeometry>
        </mxCell>
        <mxCell id="KKZn7l77yeVXE7LOhPuz-16" value="&lt;h1&gt;指挥所二楼&lt;/h1&gt;&lt;p&gt;剧情简介&lt;/p&gt;" style="text;html=1;strokeColor=none;fillColor=none;spacing=5;spacingTop=-20;whiteSpace=wrap;overflow=hidden;rounded=0;" parent="VATi5h1n2YLOwhg8Z5gh-1" vertex="1">
          <mxGeometry x="40" y="30" width="190" height="120" as="geometry" />
        </mxCell>
        <mxCell id="YPH0-UQiumrvfThyzLdv-0" value="" style="shape=flexArrow;endArrow=classic;startArrow=classic;html=1;" parent="VATi5h1n2YLOwhg8Z5gh-1" edge="1">
          <mxGeometry width="50" height="50" relative="1" as="geometry">
            <mxPoint x="59" y="237.5" as="sourcePoint" />
            <mxPoint x="109" y="187.5" as="targetPoint" />
          </mxGeometry>
        </mxCell>
        <mxCell id="YPH0-UQiumrvfThyzLdv-1" value="指挥所1F" style="text;html=1;align=center;verticalAlign=middle;resizable=0;points=[];autosize=1;" parent="VATi5h1n2YLOwhg8Z5gh-1" vertex="1">
          <mxGeometry x="54" y="240" width="70" height="20" as="geometry" />
        </mxCell>
        <mxCell id="Zl2fSzuMhFLzeWyQhoqR-0" value="" style="shape=flexArrow;endArrow=classic;startArrow=classic;html=1;" parent="VATi5h1n2YLOwhg8Z5gh-1" edge="1">
          <mxGeometry width="50" height="50" relative="1" as="geometry">
            <mxPoint x="832" y="677.5" as="sourcePoint" />
            <mxPoint x="882" y="627.5" as="targetPoint" />
          </mxGeometry>
        </mxCell>
        <mxCell id="Zl2fSzuMhFLzeWyQhoqR-1" value="指挥所1F" style="text;html=1;align=center;verticalAlign=middle;resizable=0;points=[];autosize=1;" parent="VATi5h1n2YLOwhg8Z5gh-1" vertex="1">
          <mxGeometry x="827" y="680" width="70" height="20" as="geometry" />
        </mxCell>
        <mxCell id="M5dk_E98Jky7ZKFr6DhM-2" value="" style="shape=crossbar;whiteSpace=wrap;html=1;rounded=1;" vertex="1" parent="VATi5h1n2YLOwhg8Z5gh-1">
          <mxGeometry x="57" y="265" width="294" height="20" as="geometry" />
        </mxCell>
        <mxCell id="M5dk_E98Jky7ZKFr6DhM-5" value="6m" style="text;html=1;strokeColor=none;fillColor=none;align=center;verticalAlign=middle;whiteSpace=wrap;rounded=0;" vertex="1" parent="VATi5h1n2YLOwhg8Z5gh-1">
          <mxGeometry x="170" y="250" width="40" height="20" as="geometry" />
        </mxCell>
        <mxCell id="M5dk_E98Jky7ZKFr6DhM-6" value="" style="shape=crossbar;whiteSpace=wrap;html=1;rounded=1;" vertex="1" parent="VATi5h1n2YLOwhg8Z5gh-1">
          <mxGeometry x="460" y="272.5" width="180" height="20" as="geometry" />
        </mxCell>
        <mxCell id="M5dk_E98Jky7ZKFr6DhM-7" value="3.5m" style="text;html=1;strokeColor=none;fillColor=none;align=center;verticalAlign=middle;whiteSpace=wrap;rounded=0;" vertex="1" parent="VATi5h1n2YLOwhg8Z5gh-1">
          <mxGeometry x="530" y="260" width="40" height="20" as="geometry" />
        </mxCell>
        <mxCell id="M5dk_E98Jky7ZKFr6DhM-8" value="" style="shape=crossbar;whiteSpace=wrap;html=1;rounded=1;direction=south;" vertex="1" parent="VATi5h1n2YLOwhg8Z5gh-1">
          <mxGeometry x="354" y="286" width="20" height="104" as="geometry" />
        </mxCell>
        <mxCell id="M5dk_E98Jky7ZKFr6DhM-9" value="4m" style="text;html=1;strokeColor=none;fillColor=none;align=center;verticalAlign=middle;whiteSpace=wrap;rounded=0;direction=south;" vertex="1" parent="VATi5h1n2YLOwhg8Z5gh-1">
          <mxGeometry x="370" y="320" width="20" height="40" as="geometry" />
        </mxCell>
        <mxCell id="M5dk_E98Jky7ZKFr6DhM-10" value="" style="shape=crossbar;whiteSpace=wrap;html=1;rounded=1;" vertex="1" parent="VATi5h1n2YLOwhg8Z5gh-1">
          <mxGeometry x="351" y="260" width="109" height="20" as="geometry" />
        </mxCell>
        <mxCell id="M5dk_E98Jky7ZKFr6DhM-11" value="2.5m" style="text;html=1;strokeColor=none;fillColor=none;align=center;verticalAlign=middle;whiteSpace=wrap;rounded=0;" vertex="1" parent="VATi5h1n2YLOwhg8Z5gh-1">
          <mxGeometry x="390" y="240" width="40" height="20" as="geometry" />
        </mxCell>
        <mxCell id="M5dk_E98Jky7ZKFr6DhM-17" value="" style="shape=crossbar;whiteSpace=wrap;html=1;rounded=1;" vertex="1" parent="VATi5h1n2YLOwhg8Z5gh-1">
          <mxGeometry x="640" y="265" width="90" height="20" as="geometry" />
        </mxCell>
        <mxCell id="M5dk_E98Jky7ZKFr6DhM-18" value="2.5m" style="text;html=1;strokeColor=none;fillColor=none;align=center;verticalAlign=middle;whiteSpace=wrap;rounded=0;" vertex="1" parent="VATi5h1n2YLOwhg8Z5gh-1">
          <mxGeometry x="665" y="252.5" width="40" height="20" as="geometry" />
        </mxCell>
        <mxCell id="M5dk_E98Jky7ZKFr6DhM-21" value="" style="shape=crossbar;whiteSpace=wrap;html=1;rounded=1;direction=south;" vertex="1" parent="VATi5h1n2YLOwhg8Z5gh-1">
          <mxGeometry x="404" y="280" width="20" height="424" as="geometry" />
        </mxCell>
        <mxCell id="M5dk_E98Jky7ZKFr6DhM-22" value="12m" style="text;html=1;strokeColor=none;fillColor=none;align=center;verticalAlign=middle;whiteSpace=wrap;rounded=0;direction=south;" vertex="1" parent="VATi5h1n2YLOwhg8Z5gh-1">
          <mxGeometry x="414" y="452.5" width="20" height="40" as="geometry" />
        </mxCell>
        <mxCell id="M5dk_E98Jky7ZKFr6DhM-23" value="" style="shape=crossbar;whiteSpace=wrap;html=1;rounded=1;direction=south;" vertex="1" parent="VATi5h1n2YLOwhg8Z5gh-1">
          <mxGeometry x="604" y="396.25" width="20" height="183.75" as="geometry" />
        </mxCell>
        <mxCell id="M5dk_E98Jky7ZKFr6DhM-24" value="4m" style="text;html=1;strokeColor=none;fillColor=none;align=center;verticalAlign=middle;whiteSpace=wrap;rounded=0;direction=south;" vertex="1" parent="VATi5h1n2YLOwhg8Z5gh-1">
          <mxGeometry x="620" y="468.13" width="20" height="40" as="geometry" />
        </mxCell>
        <mxCell id="M5dk_E98Jky7ZKFr6DhM-27" value="" style="shape=crossbar;whiteSpace=wrap;html=1;rounded=1;" vertex="1" parent="VATi5h1n2YLOwhg8Z5gh-1">
          <mxGeometry x="730" y="565" width="160" height="20" as="geometry" />
        </mxCell>
        <mxCell id="M5dk_E98Jky7ZKFr6DhM-28" value="4m" style="text;html=1;strokeColor=none;fillColor=none;align=center;verticalAlign=middle;whiteSpace=wrap;rounded=0;" vertex="1" parent="VATi5h1n2YLOwhg8Z5gh-1">
          <mxGeometry x="787" y="580" width="40" height="20" as="geometry" />
        </mxCell>
        <mxCell id="M5dk_E98Jky7ZKFr6DhM-30" value="" style="shape=crossbar;whiteSpace=wrap;html=1;rounded=1;direction=south;" vertex="1" parent="VATi5h1n2YLOwhg8Z5gh-1">
          <mxGeometry x="244" y="150" width="20" height="130" as="geometry" />
        </mxCell>
        <mxCell id="M5dk_E98Jky7ZKFr6DhM-31" value="3m" style="text;html=1;strokeColor=none;fillColor=none;align=center;verticalAlign=middle;whiteSpace=wrap;rounded=0;direction=south;" vertex="1" parent="VATi5h1n2YLOwhg8Z5gh-1">
          <mxGeometry x="230" y="182.5" width="20" height="40" as="geometry" />
        </mxCell>
      </root>
    </mxGraphModel>
  </diagram>
</mxfile>
